<?xml version="1.0" encoding="utf-8"?>
<svg version="1.1" id="图层_1" xmlns="http://www.w3.org/2000/svg" xmlns:xlink="http://www.w3.org/1999/xlink" x="0px" y="0px"
	 viewBox="0 0 560.37 262.73" style="enable-background:new 0 0 560.37 262.73;" xml:space="preserve">
<style type="text/css">
	.st0{fill:url(#SVGID_1_);}
	.st1{fill:url(#SVGID_2_);}
	.st2{fill:url(#SVGID_3_);}
	.st3{fill:url(#SVGID_4_);}
	.st4{fill:url(#SVGID_5_);}
	.st5{fill:url(#SVGID_6_);}
	.st6{fill:url(#SVGID_7_);}
	.st7{fill:url(#SVGID_8_);}
	.st8{fill:url(#SVGID_9_);}
</style>
<g>
	
		<linearGradient id="SVGID_1_" gradientUnits="userSpaceOnUse" x1="77.9661" y1="155.8562" x2="57.6183" y2="259.9432" gradientTransform="matrix(1 0 0 -1 0 393.4081)">
		<stop  offset="5.291009e-03" style="stop-color:#008FC1"/>
		<stop  offset="1" style="stop-color:#00F879"/>
	</linearGradient>
	<path class="st0" d="M70.38,84.8c7.18-1.18,14.36-1.57,21.55-1.18c7.18,0.4,13.68,2.08,19.51,5.03
		c5.82,2.96,10.53,7.43,14.12,13.41c3.59,5.98,5.39,14.03,5.39,24.14c0,6.95-1.84,14.49-5.51,22.62s-8.5,16.29-14.48,24.48
		c-5.99,8.19-12.85,16.21-20.59,24.06c-7.74,7.85-15.72,14.91-23.94,21.2c-8.22,6.29-16.28,11.53-24.18,15.74
		s-15.13,6.85-21.67,7.93c-6.07,1-10.58,0.48-13.53-1.56s-4.91-4.57-5.86-7.57c-1.12-3.35-1.44-7.34-0.96-11.97
		c1.11,0.45,2.55,0.72,4.31,0.81c1.6,0.24,3.51,0.34,5.75,0.28c2.23-0.05,4.87-0.33,7.9-0.83c4.79-0.79,9.89-2.52,15.32-5.18
		c-3.19-0.49-6.15-1.64-8.86-3.47c-2.72-1.83-4.07-4.89-4.07-9.19c0-2.78,0.8-6.96,2.39-12.53s3.63-11.72,6.1-18.45
		c2.47-6.73,5.27-13.69,8.38-20.91c3.11-7.21,6.1-13.77,8.98-19.68c2.87-5.91,5.54-10.8,8.02-14.69c2.47-3.89,4.35-5.93,5.62-6.14
		c2.07-0.34,3.91-0.17,5.51,0.52c1.59,0.69,3.03,1.43,4.31,2.23c1.44,1.16,2.71,2.46,3.83,3.92c-5.9,12.98-11.17,25.29-15.8,36.92
		c-2.08,4.89-4.07,9.9-5.98,15.01c-1.92,5.13-3.63,10.05-5.15,14.79c-1.51,4.74-2.71,9.08-3.59,13.01s-1.31,7.23-1.31,9.89
		c0,0.76,0.03,1.45,0.12,2.07c0.08,0.62,0.2,1.23,0.36,1.84c5.58-3.45,11.25-7.61,17-12.47c5.74-4.86,11.21-10.09,16.4-15.69
		c5.18-5.59,10.05-11.46,14.6-17.57c4.55-6.12,8.53-12.24,11.97-18.38c3.43-6.13,6.1-12.06,8.02-17.82
		c1.91-5.75,2.87-11.09,2.87-16.02c0-3.29-0.76-6-2.27-8.16c-1.52-2.15-3.63-3.76-6.35-4.83c-2.72-1.07-5.82-1.66-9.34-1.78
		c-3.51-0.12-7.34,0.16-11.49,0.85c-11.49,1.9-21.82,5.18-31,9.85s-16.84,9.69-22.99,15.07c-6.14,5.37-10.69,10.58-13.64,15.62
		c-2.95,5.03-4.03,8.88-3.23,11.53c-2.4-0.62-4.55-1.53-6.46-2.73c-1.59-1-3.07-2.37-4.43-4.11C0.67,142.98,0,140.72,0,137.93
		c0-2.78,1.59-6.77,4.79-11.97c3.19-5.2,7.82-10.55,13.88-16.03c6.06-5.49,13.44-10.59,22.14-15.31S59.37,86.61,70.38,84.8z"/>
	
		<linearGradient id="SVGID_2_" gradientUnits="userSpaceOnUse" x1="180.8361" y1="175.9662" x2="160.4882" y2="280.0532" gradientTransform="matrix(1 0 0 -1 0 393.4081)">
		<stop  offset="5.291009e-03" style="stop-color:#008FC1"/>
		<stop  offset="1" style="stop-color:#00F879"/>
	</linearGradient>
	<path class="st1" d="M202.77,130.29c3.19-0.53,5.86-0.11,8.02,1.24c2.15,1.35,3.07,2.75,2.75,4.19c-0.16,0.53-1,2.37-2.51,5.53
		s-3.51,7-5.98,11.51c-2.48,4.52-5.39,9.36-8.74,14.52c-3.35,5.17-6.98,10.06-10.89,14.69c-3.92,4.63-8.02,8.6-12.33,11.89
		c-4.31,3.3-8.7,5.32-13.16,6.06c-3.99,0.66-8.14,0.55-12.45-0.32s-8.22-2.43-11.73-4.7c-3.51-2.26-6.38-5.27-8.62-9.01
		c-2.23-3.74-3.35-8.14-3.35-13.2c0-3.66,0.64-7.78,1.91-12.35c1.28-4.57,2.96-9.24,5.03-14c2.08-4.76,4.51-9.43,7.3-14
		c2.79-4.56,5.7-8.68,8.74-12.34c3.03-3.66,6.14-6.7,9.34-9.12c3.19-2.43,6.14-3.86,8.85-4.31c8.62-1.42,15-0.92,19.15,1.49
		c4.15,2.42,6.66,5.86,7.54,10.32c0.88,4.47,0.48,9.53-1.2,15.18c-1.67,5.65-4.03,11.03-7.06,16.14c-3.03,5.12-6.5,9.54-10.41,13.29
		c-3.91,3.74-7.54,5.89-10.89,6.44c-3.67,0.6-6.74,0.45-9.22-0.47c-2.48-0.92-4.51-2.01-6.1-3.26c-0.8,3.8-1.28,7.35-1.44,10.66
		c-0.16,3.32,0.12,6.14,0.84,8.49c0.72,2.35,1.87,4.12,3.47,5.31c1.59,1.19,3.83,1.55,6.71,1.07c3.03-0.5,6.14-2.02,9.33-4.57
		s6.35-5.69,9.46-9.43c3.11-3.74,6.1-7.83,8.98-12.29c2.87-4.46,5.51-8.84,7.9-13.15s4.51-8.39,6.34-12.23
		C200.17,135.71,201.65,132.62,202.77,130.29z M174.52,114.27c-2.08,0.34-4.35,1.95-6.82,4.83c-2.48,2.87-4.95,6.44-7.42,10.7
		c-2.48,4.27-4.75,9.03-6.82,14.3s-3.83,10.49-5.26,15.66c1.75,0.47,3.43,0.32,5.03-0.45c2.07-0.72,4.23-2.37,6.46-4.95
		c2.23-2.58,4.39-5.56,6.46-8.93s3.91-6.96,5.51-10.77c1.59-3.8,2.87-7.23,3.83-10.3c0.96-3.07,1.4-5.57,1.32-7.52
		C176.71,114.9,175.95,114.04,174.52,114.27z"/>
	
		<linearGradient id="SVGID_3_" gradientUnits="userSpaceOnUse" x1="246.5193" y1="188.8065" x2="226.1715" y2="292.8935" gradientTransform="matrix(1 0 0 -1 0 393.4081)">
		<stop  offset="5.291009e-03" style="stop-color:#008FC1"/>
		<stop  offset="1" style="stop-color:#00F879"/>
	</linearGradient>
	<path class="st2" d="M254.23,90.9c4.47-1.36,8.38-1.82,11.73-1.36c2.71,0.31,5.18,1.45,7.42,3.42s3.11,5.65,2.64,11.03
		c-0.32,4.35-1.84,9.5-4.54,15.44c-2.72,5.95-6.07,12.09-10.06,18.44s-8.38,12.63-13.17,18.86c-4.79,6.22-9.57,11.85-14.36,16.87
		c-4.79,5.03-9.3,9.18-13.53,12.47c-4.23,3.29-7.7,5.16-10.41,5.61c-0.96,0.16-1.67,0.21-2.15,0.16c-0.48,0.08-0.8,0.07-0.96-0.03
		l-0.48,0.08c-2.56-0.34-4.87-1.31-6.94-2.93c-2.08-1.61-3.83-3.54-5.27-5.77c-1.44-2.22-2.51-4.54-3.23-6.96
		c-0.72-2.41-1.08-4.56-1.08-6.46c0-1.39,0.52-4.13,1.56-8.22s2.43-8.74,4.19-13.96s3.75-10.73,5.98-16.53s4.51-11.17,6.82-16.1
		s4.63-9.04,6.94-12.33c2.31-3.28,4.43-5.09,6.35-5.41c2.07-0.34,3.9-0.07,5.51,0.8c1.59,0.88,3.03,1.9,4.31,3.08
		c1.59,1.38,2.95,2.99,4.07,4.83c-2.23,2.14-4.55,5.49-6.95,10.05c-2.39,4.57-4.75,9.63-7.06,15.19
		c-2.31,5.57-4.47,11.26-6.46,17.09c-2,5.83-3.59,11.14-4.79,15.96c-1.2,4.81-2,8.73-2.39,11.77c-0.4,3.04-0.12,4.48,0.84,4.32
		c1.59-0.27,3.91-2.13,6.94-5.6s6.34-7.9,9.93-13.3c3.59-5.4,7.22-11.4,10.9-18.01c3.67-6.61,6.9-13.18,9.69-19.71
		s4.99-12.7,6.58-18.53C254.39,99.35,254.87,94.59,254.23,90.9z"/>
	
		<linearGradient id="SVGID_4_" gradientUnits="userSpaceOnUse" x1="328.8141" y1="204.8942" x2="308.4663" y2="308.9811" gradientTransform="matrix(1 0 0 -1 0 393.4081)">
		<stop  offset="5.291009e-03" style="stop-color:#008FC1"/>
		<stop  offset="1" style="stop-color:#00F879"/>
	</linearGradient>
	<path class="st3" d="M355.02,62.73c-3.36,0.43-6.87,0.88-10.54,1.36c-3.2,0.4-6.74,0.89-10.65,1.47
		c-3.92,0.58-7.94,1.28-12.09,2.09c-3.51,6.9-7.07,14.18-10.66,21.85c-3.59,7.67-6.9,15.26-9.93,22.78
		c-3.03,7.51-5.79,14.64-8.26,21.36c-2.48,6.73-4.47,12.65-5.98,17.76c-1.52,5.12-2.43,9.16-2.75,12.12
		c-0.32,2.97,0.16,4.34,1.44,4.12c1.75-0.29,3.67-1.64,5.74-4.07s4.19-5.43,6.34-9.01c2.16-3.58,4.35-7.54,6.58-11.89
		c2.24-4.35,4.27-8.54,6.1-12.57c1.83-4.03,3.48-7.75,4.91-11.14c1.44-3.4,2.55-5.98,3.36-7.76c3.19-0.53,5.9-0.12,8.14,1.22
		c2.23,1.34,3.11,2.75,2.63,4.22c-0.16,0.78-0.95,2.88-2.39,6.27c-1.44,3.4-3.27,7.4-5.51,12c-2.23,4.6-4.79,9.51-7.66,14.72
		c-2.88,5.21-5.83,10.06-8.86,14.54c-3.03,4.48-6.1,8.28-9.21,11.38c-3.11,3.1-6.03,4.88-8.74,5.32c-3.19,0.53-6.07-0.01-8.62-1.62
		c-2.55-1.6-4.7-3.71-6.46-6.33c-1.75-2.61-3.07-5.4-3.95-8.35c-0.87-2.96-1.31-5.44-1.31-7.47c0-2.52,0.95-6.85,2.87-12.98
		s4.39-13.17,7.42-21.13c3.03-7.96,6.46-16.42,10.29-25.4c3.83-8.97,7.66-17.5,11.49-25.59c-4.79,0.92-9.5,1.85-14.13,2.8
		c-4.63,0.95-9.01,1.96-13.16,3.02c-0.48-1.44-0.64-2.86-0.48-4.28c0.16-1.16,0.52-2.33,1.08-3.49c0.56-1.17,1.72-2.08,3.47-2.75
		c1.28-0.46,4.55-1.28,9.82-2.47c5.27-1.18,11.57-2.51,18.91-3.97c4.15-8.14,7.94-14.86,11.38-20.17c3.43-5.3,6.02-8.1,7.78-8.39
		c2.07-0.34,3.95-0.08,5.63,0.78c1.67,0.86,3.15,1.89,4.43,3.06c1.44,1.41,2.79,3.02,4.07,4.83c-3.03,4.29-6.31,9.45-9.82,15.46
		c4.63-0.76,9.29-1.53,14-2.31s9.69-1.35,14.96-1.71c1.28,0.93,2.07,1.93,2.39,3.02c0.31,0.96,0.28,2.04-0.12,3.24
		C358.57,59.87,357.25,61.22,355.02,62.73z"/>
	
		<linearGradient id="SVGID_5_" gradientUnits="userSpaceOnUse" x1="371.3297" y1="213.2055" x2="350.9818" y2="317.2925" gradientTransform="matrix(1 0 0 -1 0 393.4081)">
		<stop  offset="5.291009e-03" style="stop-color:#008FC1"/>
		<stop  offset="1" style="stop-color:#00F879"/>
	</linearGradient>
	<path class="st4" d="M410.32,105.19c0,1.9-0.96,4.33-2.87,7.3c-1.92,2.97-4.55,5.96-7.9,8.98c-3.35,3.02-7.3,5.91-11.85,8.68
		c-4.55,2.77-9.46,4.97-14.72,6.6c-1.92,3.98-4.15,7.83-6.7,11.53c-2.56,3.71-5.31,7.07-8.26,10.08c-2.95,3.01-6.1,5.53-9.46,7.53
		c-3.35,2.01-6.94,3.32-10.77,3.96c-2.56,0.42-5.51,0.05-8.85-1.1c-3.35-1.15-6.43-3.02-9.22-5.59s-5.07-5.83-6.82-9.78
		s-2.39-8.48-1.92-13.62c0.48-6.77,1.92-13.8,4.31-21.09c2.39-7.28,5.46-14.01,9.22-20.19c3.75-6.18,8.1-11.45,13.05-15.8
		c4.94-4.35,10.3-7,16.04-7.95c4.47-0.74,8.5-0.67,12.09,0.19c3.59,0.86,6.7,2.28,9.34,4.24c2.63,1.97,4.71,4.44,6.22,7.42
		c1.52,2.97,2.43,6.2,2.76,9.68c0.31,3.11,0,7.15-0.96,12.11s-2.48,10.27-4.55,15.92c4.62-2.15,8.89-5.22,12.81-9.22
		c3.9-3.99,6.66-9.03,8.26-15.11c2.08-0.21,3.91-0.14,5.51,0.23c1.28,0.3,2.47,0.79,3.59,1.49
		C409.76,102.37,410.32,103.55,410.32,105.19z M334.19,160.01c2.39-0.39,5.07-2.57,8.02-6.54c2.95-3.96,5.86-8.83,8.74-14.62
		c-2.55-0.34-4.15-1.12-4.79-2.34c-0.64-1.23-0.68-2.45-0.11-3.68c0.56-1.23,1.59-2.28,3.11-3.16c1.51-0.88,3.23-1.23,5.15-1.04
		c0.64,0.15,1.11,0.2,1.44,0.14c2.39-5.58,4.46-11.19,6.22-16.86c1.75-5.66,2.99-10.73,3.71-15.21c0.72-4.48,0.75-8.05,0.12-10.73
		c-0.64-2.67-2.15-3.82-4.55-3.42c-2.39,0.39-5.19,2.66-8.38,6.79s-6.31,9.16-9.34,15.09c-3.03,5.94-5.79,12.24-8.26,18.9
		c-2.48,6.66-4.31,12.81-5.51,18.44s-1.51,10.2-0.95,13.71C329.36,159.01,331.16,160.51,334.19,160.01z"/>
	
		<linearGradient id="SVGID_6_" gradientUnits="userSpaceOnUse" x1="446.2983" y1="227.861" x2="425.9504" y2="331.948" gradientTransform="matrix(1 0 0 -1 0 393.4081)">
		<stop  offset="5.291009e-03" style="stop-color:#008FC1"/>
		<stop  offset="1" style="stop-color:#00F879"/>
	</linearGradient>
	<path class="st5" d="M485.72,92.76c0,1.9-0.96,4.33-2.87,7.3c-1.92,2.97-4.55,5.97-7.9,8.98c-3.35,3.02-7.3,5.91-11.85,8.68
		c-4.55,2.77-9.46,4.97-14.72,6.6c-1.92,3.99-4.15,7.83-6.7,11.54c-2.56,3.71-5.31,7.07-8.26,10.08c-2.95,3.02-6.1,5.53-9.45,7.53
		c-3.36,2.01-6.95,3.32-10.77,3.96c-2.56,0.42-5.51,0.05-8.86-1.1c-3.35-1.16-6.43-3.02-9.21-5.59c-2.8-2.57-5.07-5.83-6.82-9.78
		c-1.75-3.94-2.39-8.48-1.92-13.62c0.48-6.78,1.92-13.81,4.31-21.1c2.39-7.28,5.46-14.01,9.22-20.19c3.75-6.18,8.1-11.45,13.04-15.8
		s10.3-7,16.04-7.95c4.47-0.74,8.5-0.67,12.09,0.19c3.59,0.86,6.7,2.28,9.33,4.24c2.64,1.97,4.71,4.44,6.23,7.42
		c1.52,2.97,2.43,6.21,2.75,9.69c0.32,3.11,0,7.15-0.96,12.1c-0.95,4.96-2.48,10.27-4.54,15.92c4.62-2.15,8.89-5.22,12.8-9.22
		c3.91-3.99,6.66-9.03,8.26-15.11c2.07-0.21,3.91-0.14,5.51,0.23c1.28,0.3,2.47,0.79,3.59,1.49
		C485.16,89.94,485.72,91.12,485.72,92.76z M409.6,147.59c2.39-0.39,5.06-2.57,8.02-6.54c2.95-3.96,5.87-8.83,8.74-14.61
		c-2.56-0.34-4.15-1.12-4.79-2.34s-0.68-2.45-0.12-3.68c0.56-1.23,1.59-2.28,3.11-3.17c1.51-0.88,3.23-1.23,5.14-1.04
		c0.64,0.15,1.12,0.2,1.44,0.15c2.39-5.58,4.47-11.19,6.23-16.86c1.75-5.66,2.99-10.73,3.71-15.21c0.72-4.48,0.75-8.05,0.12-10.73
		c-0.64-2.67-2.15-3.82-4.55-3.42c-2.39,0.39-5.19,2.66-8.38,6.79c-3.2,4.13-6.31,9.16-9.34,15.09c-3.03,5.94-5.79,12.24-8.26,18.9
		c-2.48,6.66-4.31,12.81-5.51,18.44s-1.52,10.2-0.95,13.72C404.77,146.58,406.56,148.09,409.6,147.59z"/>
	
		<linearGradient id="SVGID_7_" gradientUnits="userSpaceOnUse" x1="513.6302" y1="241.0236" x2="493.2823" y2="345.1107" gradientTransform="matrix(1 0 0 -1 0 393.4081)">
		<stop  offset="5.291009e-03" style="stop-color:#008FC1"/>
		<stop  offset="1" style="stop-color:#00F879"/>
	</linearGradient>
	<path class="st6" d="M518.52,0.14c2.07-0.34,3.91-0.08,5.51,0.8c1.59,0.88,3.03,1.91,4.31,3.08c1.59,1.38,2.95,2.99,4.07,4.83
		c-3.99,5.59-8.26,12.64-12.81,21.16c-4.54,8.53-8.98,17.54-13.29,27.03c-4.31,9.5-8.38,18.95-12.21,28.37
		c-3.83,9.41-7.02,17.91-9.57,25.47c-2.56,7.56-4.28,13.63-5.15,18.2c-0.88,4.57-0.52,6.72,1.08,6.46c1.75-0.29,3.67-1.64,5.74-4.07
		s4.23-5.44,6.46-9.03s4.43-7.55,6.59-11.89c2.15-4.34,4.19-8.53,6.1-12.57s3.59-7.76,5.02-11.16c1.44-3.4,2.47-5.97,3.11-7.72
		c3.19-0.53,5.9-0.12,8.14,1.22c2.23,1.34,3.19,2.73,2.87,4.17c-0.32,0.81-1.2,2.92-2.63,6.31c-1.44,3.4-3.27,7.4-5.51,12
		s-4.75,9.5-7.54,14.71c-2.79,5.2-5.71,10.04-8.74,14.52c-3.03,4.48-6.15,8.28-9.34,11.4c-3.19,3.11-6.15,4.9-8.86,5.34
		c-3.19,0.53-6.03-0.02-8.5-1.64c-2.47-1.61-4.59-3.73-6.34-6.35s-3.07-5.4-3.95-8.35c-0.87-2.96-1.31-5.44-1.31-7.46
		c0-2.78,1.16-7.77,3.47-14.98c2.31-7.2,5.23-15.36,8.74-24.47s7.46-18.64,11.85-28.59c4.39-9.95,8.7-19.07,12.93-27.34
		c4.23-8.28,8.1-15.18,11.61-20.69C513.89,3.37,516.6,0.46,518.52,0.14z"/>
	
		<linearGradient id="SVGID_8_" gradientUnits="userSpaceOnUse" x1="538.5805" y1="245.9012" x2="518.2327" y2="349.9881" gradientTransform="matrix(1 0 0 -1 0 393.4081)">
		<stop  offset="5.291009e-03" style="stop-color:#008FC1"/>
		<stop  offset="1" style="stop-color:#00F879"/>
	</linearGradient>
	<path class="st7" d="M542.22,44.39c2.23-0.37,4.31-0.2,6.23,0.49c1.91,0.7,3.67,1.55,5.26,2.55c1.75,1.1,3.43,2.47,5.03,4.1
		c-4.31,2.36-8.14,5.26-11.49,8.72c-2.87,2.88-5.5,6.47-7.9,10.78s-3.59,9.5-3.59,15.57c0,2.65,0.4,5.56,1.2,8.71
		c0.8,3.16,1.64,6.31,2.51,9.45c0.88,3.14,1.71,6.16,2.51,9.06s1.2,5.43,1.2,7.58s-0.24,4.21-0.72,6.18s-1.35,3.77-2.63,5.36
		c-1.28,1.6-3.11,2.98-5.51,4.13s-5.43,2.03-9.1,2.64c-3.51,0.58-6.82,0.49-9.93-0.26s-5.95-1.86-8.5-3.34s-4.71-3.21-6.46-5.19
		c-1.75-1.99-3.15-3.91-4.19-5.76c-1.03-1.85-1.63-3.52-1.8-5.01c-0.16-1.49,0.24-2.51,1.2-3.04c0.64-0.36,1.47,0.01,2.51,1.1
		c1.04,1.1,2.27,2.34,3.71,3.75c1.43,1.41,3.07,2.66,4.9,3.74c1.84,1.09,3.95,1.44,6.34,1.04c2.55-0.42,4.87-1.72,6.95-3.89
		c2.07-2.17,3.11-5.22,3.11-9.14c0-2.4-0.48-4.79-1.44-7.16s-1.95-4.86-2.99-7.47c-1.04-2.61-2.03-5.35-2.99-8.23
		s-1.44-6.08-1.44-9.63c0-4.55,0.96-8.98,2.87-13.27s4.31-8.1,7.18-11.42s5.95-6.07,9.22-8.25
		C536.75,46.12,539.66,44.81,542.22,44.39z"/>
</g>
<linearGradient id="SVGID_9_" gradientUnits="userSpaceOnUse" x1="465.5254" y1="135.1918" x2="459.2645" y2="212.4092" gradientTransform="matrix(1 0 0 -1 0 393.4081)">
	<stop  offset="5.291009e-03" style="stop-color:#008FC1"/>
	<stop  offset="1" style="stop-color:#00F879"/>
</linearGradient>
<path class="st8" d="M549.25,161.49l-174.94,31.16c-5.89,1.05-10.68,6.68-10.68,12.57v48.57c0,5.9,4.79,9.82,10.68,8.77
	l174.94-31.16c5.9-1.05,10.68-6.68,10.68-12.58v-48.57C559.93,164.36,555.16,160.43,549.25,161.49z M431.51,203.02
	c-0.58,2.44-1.33,5.2-2.25,8.27c-0.97,3.23-2,6.44-3.09,9.63c-1.13,3.35-2.27,6.53-3.39,9.55c-1.13,3.02-2.21,5.68-3.23,7.99
	s-1.82,3.92-2.42,4.86c-0.79,0.79-1.99,1.58-3.6,2.37c-1.62,0.8-3.4,1.37-5.34,1.71c-2.36,0.42-4.37,0.43-6.03,0.04
	c-1.66-0.4-2.8-1.14-3.39-2.24c-0.6-1.18-1.36-2.71-2.25-4.59c-0.9-1.87-1.85-3.97-2.81-6.29c-0.97-2.33-1.96-4.8-2.98-7.41
	s-2-5.29-2.95-8.01c-0.93-2.66-1.81-5.33-2.66-8.02c-0.84-2.62-1.55-5.08-2.15-7.38c0.79-0.92,1.9-1.83,3.36-2.74
	s3.02-1.52,4.67-1.81c2.09-0.37,3.77-0.24,5.06,0.38c1.29,0.63,2.24,2.07,2.84,4.32c1.53,5.13,3.05,10.05,4.57,14.74
	c1.53,4.69,3.12,9.6,4.79,14.71l0.49-0.08c1.47-5.49,3.01-11.45,4.6-17.9c1.6-6.46,3.11-12.86,4.55-19.21
	c1.02-0.64,2.1-1.24,3.23-1.79c1.13-0.54,2.41-0.95,3.84-1.2c2.03-0.36,3.77-0.21,5.23,0.46c1.46,0.67,2.17,2.04,2.17,4.11
	C432.37,198.74,432.1,200.59,431.51,203.02L431.51,203.02z M489.74,213.48c0,3-0.5,5.83-1.52,8.49c-1.01,2.63-2.51,5.04-4.43,7.1
	c-1.95,2.07-4.3,3.84-7.07,5.28c-2.78,1.44-5.92,2.47-9.42,3.09c-3.52,0.62-6.66,0.72-9.42,0.26c-2.78-0.46-5.13-1.38-7.07-2.76
	c-1.93-1.39-3.42-3.23-4.43-5.52c-1.02-2.29-1.52-4.94-1.52-7.95v-32.09c0.64-0.25,1.61-0.59,2.91-1c1.29-0.41,2.56-0.74,3.81-0.96
	c2.78-0.5,4.77-0.37,6,0.35c1.23,0.74,1.83,2.46,1.83,5.18v25.65c0,2.68,0.74,4.64,2.22,5.88c1.47,1.23,3.37,1.65,5.69,1.24
	c2.31-0.41,4.21-1.5,5.68-3.26c1.48-1.77,2.22-3.99,2.22-6.67v-31.82c0.65-0.25,1.62-0.59,2.91-1s2.56-0.74,3.82-0.96
	c2.78-0.5,4.77-0.37,5.99,0.35c1.22,0.74,1.83,2.46,1.83,5.18v25.94H489.74z M539.29,222.19c-0.88,1.08-2.1,1.76-3.67,2.05
	l-24.27,4.32c-2.4,0.42-4.3,0.07-5.69-1.08c-1.38-1.13-2.07-2.91-2.07-5.3v-35.15c0-2.4,0.69-4.42,2.07-6.05
	c1.39-1.64,3.29-2.67,5.69-3.1l27.45-4.89c0.36,0.54,0.7,1.25,1,2.15s0.45,1.93,0.45,3.07c0,2.07-0.44,3.67-1.31,4.78
	c-0.89,1.1-2.11,1.79-3.68,2.07l-17.54,3.12v7.7l18.71-3.34c0.38,0.54,0.72,1.25,1.04,2.14c0.33,0.89,0.48,1.91,0.48,3.07
	c0,2.07-0.45,3.65-1.35,4.71s-2.12,1.73-3.64,2l-15.25,2.71v8.73l21.34-3.8c0.42,0.58,0.78,1.33,1.08,2.27
	c0.3,0.94,0.45,1.99,0.45,3.14C540.61,219.56,540.17,221.12,539.29,222.19L539.29,222.19z"/>
</svg>
